<svg xmlns="http://www.w3.org/2000/svg" xmlns:xlink="http://www.w3.org/1999/xlink" version="1.1" x="0px" y="0px" viewBox="0 0 80 80" enable-background="new 0 0 80 80" xml:space="preserve"><g><path fill="#000000" d="M78.254,28.079c0-5.146-2.768-9.452-6.479-10.559c-1.91-3.494-5-5.767-8.49-5.767   c-0.373,0-0.742,0.028-1.105,0.079c-1.303,0.055-2.547,0.413-3.695,1.022c-2.229-1.602-4.686-2.926-7.34-3.899l-0.031-7.028   l-3.727,5.919c-4.191-0.951-8.628-1.017-12.924-0.157L28.99,1.762l1.284,7.078c-5.958,2.104-11.059,5.933-14.766,11.083   l-7.582-1.276l5.371,4.834c-1.117,2.104-1.986,4.331-2.585,6.624c-2.551-3.401-9.04-4.62-9.322-4.671L1,25.364l0.241,0.313   c5.098,6.639,0.025,26.845-0.027,27.049l-0.074,0.29l0.279-0.111c2.844-1.146,8.396-5.581,9.488-6.463   c0.256,0.888,0.568,1.803,0.929,2.723l-4.12,6.718l5.928-2.897c2.048,3.649,4.764,6.796,8.077,9.353l-2.565,7.005l6.083-4.659   c3.991,2.288,8.344,3.625,12.941,3.973l1.54,5.64l1.716-5.558c5.916-0.168,11.615-2.019,16.492-5.354l7.271,3.722l-3.805-6.473   c3.555-3.266,6.258-7.3,7.949-11.729c1.564,0.409,3.732,0.707,4.318-0.544c0.947-2.02-0.627-3.863-0.627-3.863s1.41-2.723,0-3.85   c-0.514-0.41-1.164-0.301-1.783,0.004c0.057-0.633,0.096-1.268,0.113-1.904C75.281,37.845,78.254,33.414,78.254,28.079z    M27.832,20.856l-0.662,1.076l-2.719-1.673l0.99,3.014l-1.201,0.394l-2.066-6.292L27.832,20.856z M19.777,37.241l-5.745-1.846   l5.597-2.306l0.438,1.063l-2.689,1.109l2.751,0.884L19.777,37.241z M21.169,53.663l3.441-6.847l1.302,0.655l-1.653,3.29   l3.364-1.436l0.572,1.34L21.169,53.663z M37.006,27.1l0.233,0.988l-2.496,0.588l2.27,1.155l-0.459,0.904l-4.742-2.411L37.006,27.1z    M35.713,42.974l0.916,0.315l-0.799,2.315l2.091-1.243l0.495,0.833l-4.366,2.598L35.713,42.974z M37.777,65.097l-0.688-7.632   l1.452-0.131l0.33,3.667l2.102-2.993l1.191,0.837L37.777,65.097z M44.451,20.471l-1.465-2.992l-0.807,3.21l-1.279-0.321   l1.683-6.704l3.051,6.226L44.451,20.471z M50.662,49.617l1.105-0.949l2.4,2.793l-0.029-3.658l1.457-0.011l0.061,7.638   L50.662,49.617z M67.764,36.283C67.74,36.274,67.752,36.278,67.764,36.283c-1.057,0.642-2.229,1.002-3.465,1.002   c-4.621,0-8.369-4.998-8.369-11.163c0-6.165,3.748-11.163,8.369-11.163c1.717,0,3.312,0.692,4.641,1.876   c1.783,2.309,2.898,5.565,2.898,9.172C71.838,30.264,70.137,33.985,67.764,36.283z M69.727,36.599   c1.232-1.438,2.211-3.239,2.842-5.271c1.311-0.223,2.311-1.362,2.311-2.736c0-1.081-0.619-2.016-1.52-2.475   c0-0.037,0.002-0.072,0.002-0.108c0-2.085-0.35-4.064-0.969-5.85c2.264,1.38,3.834,4.353,3.834,7.81   C76.227,32.668,73.33,36.488,69.727,36.599z"/><path fill="#000000" d="M63.992,21.702c-0.436,0-0.85,0.079-1.234,0.218c0.221,0.179,0.365,0.45,0.365,0.757   c0,0.538-0.436,0.975-0.975,0.975c-0.434,0-0.797-0.286-0.924-0.678c-0.551,0.64-0.887,1.471-0.887,2.382   c0,2.018,1.637,3.654,3.654,3.654s3.654-1.636,3.654-3.654S66.01,21.702,63.992,21.702z"/></g></svg>
