<svg xmlns="http://www.w3.org/2000/svg" xmlns:xlink="http://www.w3.org/1999/xlink" version="1.1" x="0px" y="0px" viewBox="0 0 100 125" enable-background="new 0 0 100 100" xml:space="preserve"><g><path d="M3.435,45.731c0,0-1.423-1.118-1.626-2.337c-0.198-1.186,3.638-1.41,4.507-5.904c0.024-0.128-0.027-0.295,0.065-0.396   c3.8-4.116,0.444-4.481-2.291-6.504c-0.961-0.711,4.628,2.236,4.628,2.236v-2.319l1.321,2.624v-4.471l1.118,4.167l0.61-4.167v4.471   l0.711-4.471l1.728,3.963V29.37l1.22,3.659l0.61-4.37l2.439,3.861v-3.861l1.219,3.048l1.931-3.76v3.557l0.256-0.529l1.471-3.028   v3.354L25.081,25c0,0,0.203,4.573,0,4.878c-0.203,0.305,2.033-2.337,2.033-2.032c0,0.305-0.61,3.455-0.61,3.455l2.439-4.167v4.065   c0,0,2.032-2.744,2.032-2.439c0,0.305,0,3.354,0,3.354l1.423-3.252v-1.016l0.711,3.557l1.016-3.252l0.813,4.065l1.62-3.049v3.15   c0,0,3.462-4.573,3.462-4.268c0,0.305-1.829,3.963-1.829,3.963l5.894-3.049l-3.15,3.76l3.963-1.118L44.39,33.13l3.456-1.626v1.626   l3.252-0.406l0.812,2.032l2.845-0.609v1.728l1.729-0.508l1.523,1.118l1.322,1.626v1.524l2.643-0.406l1.828,0.406   c0,0,3.049-10.467,4.473-9.349c1.422,1.118,10.264,6.504,8.535,15.447c0,0-1.727,2.236-5.385,1.525   c-3.66-0.712,10.568,8.537,24.592,0.711c0,0,8.334,9.757-2.846,18.902c0,0-8.332-10.365-24.693-9.248   c0,0,12.805,4.473,3.049,12.908c-9.756,8.434-9.857-9.045-10.062-9.656c-0.203-0.609-1.625,0.611-1.625,0.611l-0.711,1.523   l-2.033-0.406l0.102,1.32l-2.236-0.914l0.307,1.932l-1.932-1.119l0.609,3.049l-2.235-1.523l-0.203,1.016l-2.338-0.711l-0.305,0.914   l-2.134-0.711l-2.744,0.305l-0.813-0.914l-1.728-1.729l1.524,2.744c0,0-3.049-1.523-2.643-1.422   c0.407,0.102-0.406,0.812-0.406,0.812l0,0l0,0l-2.947-2.541l-1.016,1.83l-1.118-1.729l2.337,2.338l-3.76-2.236v1.932l-1.829-2.541   l-0.406,1.424l-1.83-2.135l0.102,1.523l-1.83-2.234l-0.305,1.523l-1.728-2.846l-1.83,0.914l0.305-1.727l-2.744,1.83l-0.406-2.338   h-1.22l-2.642-1.018l-2.134-0.102l-1.829-0.508c0,0-10.888-6.098-11.288-10.569C1.802,46.443,0.792,45.528,3.435,45.731z"/></g><text x="0" y="115" fill="#000000" font-size="5px" font-weight="bold" font-family="'Helvetica Neue', Helvetica, Arial-Unicode, Arial, Sans-serif">Created by Mallory Hawes</text><text x="0" y="120" fill="#000000" font-size="5px" font-weight="bold" font-family="'Helvetica Neue', Helvetica, Arial-Unicode, Arial, Sans-serif">from the Noun Project</text></svg>